<svg id="Layer_1" data-name="Layer 1" xmlns="http://www.w3.org/2000/svg" viewBox="0 0 381 381.29"><defs><style>.cls-1{fill:#efefef;}.cls-2{fill:#4b90e2;}.cls-3{fill:#347dc6;}.cls-4{fill:#1e519b;}.cls-5{fill:#fb0;}.cls-6{fill:#e59e00;}.cls-7{fill:#62a7ed;}.cls-8{fill:none;stroke:#1e519b;stroke-linecap:round;stroke-linejoin:round;stroke-width:4px;}.cls-9{fill:#8b71b8;}</style></defs><title>avatar</title><circle class="cls-1" cx="190.5" cy="190.5" r="190.5"/><circle class="cls-2" cx="314.01" cy="197.12" r="27.13"/><circle class="cls-3" cx="314.01" cy="197.12" r="17.63"/><circle class="cls-2" cx="69.51" cy="197.12" r="27.13"/><circle class="cls-3" cx="69.51" cy="197.12" r="17.63"/><path class="cls-2" d="M205.87,396.29a189.78,189.78,0,0,0,127.21-48.71c-2.5-39.13-7.43-77.47-7.43-92.12,0-61.3-53.63-111-119.78-111s-119.78,49.69-119.78,111c0,13.38-4.27,52.18-6.71,92.76A189.77,189.77,0,0,0,205.87,396.29Z" transform="translate(-15.73 -15)"/><circle class="cls-4" cx="132.24" cy="218.38" r="9.62"/><circle class="cls-4" cx="249.27" cy="218.38" r="9.62"/><path class="cls-3" d="M308.19,188.83c1.81-6.79,4.6-12.27,1.93-19.25-1.32-3.46,1.3-5.78,4.21-6-8.07-56.45-53.57-99.68-108.49-99.68s-100.21,43-108.43,99.3a4,4,0,0,1,2.29,4.32c-.66,6.48-2.14,13.36.33,19.64.94,2.38,2.42,4.47,2.63,7.08s-1.05,4.63-1.89,7.1a5.24,5.24,0,0,1-.89,1.62,5.39,5.39,0,0,1-.37,1.18c12.13,28.18,55.13-7.05,106.33-7.05,50.81,0,93.55,34.72,106.06,7.7-.09-.16-.18-.32-.27-.5C308.93,198.54,306.41,195.51,308.19,188.83Z" transform="translate(-15.73 -15)"/><path class="cls-5" d="M315.63,168.25c0,65-49.14,15.54-109.76,15.54S96.1,233.23,96.1,168.25,145.25,50.6,205.87,50.6,315.63,103.28,315.63,168.25Z" transform="translate(-15.73 -15)"/><path class="cls-6" d="M310.36,156.84c0,61.19-46.28,14.63-103.36,14.63S103.64,218,103.64,156.84c0,0,6.95,31.58,103.36.7C290.89,184.38,310.36,156.84,310.36,156.84Z" transform="translate(-15.73 -15)"/><path class="cls-6" d="M240.09,167.72l-73.29,4.92c14.78-77.6,0-109.37,0-109.37,0-10.09,7.63-18.27,17-18.27h38.33c10.59,0,19.17,9.2,19.17,20.55C241.34,65.55,226.35,81,240.09,167.72Z" transform="translate(-15.73 -15)"/><circle class="cls-3" cx="190.14" cy="271"/><path class="cls-7" d="M252.67,292.5c0,32.65-24.28,59.12-48,59.12S156,325.15,156,292.5s25-59.12,48.67-59.12S252.67,259.85,252.67,292.5Z" transform="translate(-15.73 -15)"/><path class="cls-4" d="M219.92,278.5a15.25,15.25,0,0,1-30.5,0" transform="translate(-15.73 -15)"/><path class="cls-8" d="M204.67,292.6a19.33,19.33,0,1,1-38.67,0" transform="translate(-15.73 -15)"/><path class="cls-8" d="M243.34,292.6a19.33,19.33,0,1,1-38.67,0" transform="translate(-15.73 -15)"/><circle class="cls-9" cx="110.52" cy="261.92" r="15.58"/><circle class="cls-9" cx="264.85" cy="261.92" r="15.58"/><path class="cls-4" d="M222.5,319.5c0,5-7.95,9-17.75,9s-17.75-4-17.75-9a39.19,39.19,0,0,0,35.5,0Z" transform="translate(-15.73 -15)"/></svg>