<?xml version="1.0" encoding="UTF-8"?>
<svg width="20px" height="20px" viewBox="0 0 20 20" version="1.1" xmlns="http://www.w3.org/2000/svg" xmlns:xlink="http://www.w3.org/1999/xlink">
    <!-- Generator: Sketch 46.2 (44496) - http://www.bohemiancoding.com/sketch -->
    <title>Page 1</title>
    <desc>Created with Sketch.</desc>
    <defs></defs>
    <g id="Component-Library" stroke="none" stroke-width="1" fill="none" fill-rule="evenodd">
        <g id="Artboard" transform="translate(-117.000000, -477.000000)" fill="#9B9B9B">
            <g id="Page-1" transform="translate(117.000000, 477.000000)">
                <g id="Group-3" transform="translate(0.000000, 0.000424)">
                    <path d="M16.8990937,11.9342121 C15.7100312,13.0872424 14.1290937,13.7220909 12.4475312,13.7220909 C10.7659687,13.7220909 9.18471875,13.0872424 7.99596875,11.9342121 C6.80690625,10.7811818 6.15221875,9.24815152 6.15221875,7.61754545 C6.15221875,5.98693939 6.80690625,4.45360606 7.99596875,3.30087879 C9.18471875,2.14784848 10.7659687,1.513 12.4475312,1.513 C14.1290937,1.513 15.7100312,2.14784848 16.8990937,3.30087879 C18.0881562,4.45360606 18.7425312,5.98693939 18.7425312,7.61754545 C18.7425312,9.24815152 18.0881562,10.7811818 16.8990937,11.9342121 L16.8990937,11.9342121 Z M2.43815625,18.2357273 L1.50659375,17.3323939 L6.67284375,12.323 C6.81284375,12.483303 6.95846875,12.6396667 7.11346875,12.7899697 C7.27096875,12.943303 7.43596875,13.0878485 7.60503125,13.2251212 L2.43815625,18.2357273 Z M17.7815937,2.44481818 C16.3569062,1.06330303 14.4625312,0.30269697 12.4475312,0.30269697 C10.4325312,0.30269697 8.53815625,1.06330303 7.11346875,2.44512121 C5.68846875,3.82663636 4.90378125,5.66360606 4.90378125,7.61754545 C4.90378125,8.94087879 5.26503125,10.2102727 5.94034375,11.3214848 L0.18284375,16.9045152 C0.06596875,17.0181515 3.125e-05,17.1720909 3.125e-05,17.3323939 C3.125e-05,17.493 0.06596875,17.6469394 0.18284375,17.7605758 L1.99659375,19.5193636 C2.11378125,19.633 2.27221875,19.6969394 2.43815625,19.6969394 C2.60378125,19.6969394 2.76253125,19.633 2.87940625,19.5193636 L8.63878125,13.9342121 C9.78221875,14.5845152 11.0869062,14.932697 12.4475312,14.932697 C14.4625312,14.932697 16.3569062,14.1714848 17.7815937,12.7899697 C19.2065937,11.4084545 19.9912812,9.57148485 19.9912812,7.61754545 C19.9912812,5.66360606 19.2065937,3.82663636 17.7815937,2.44481818 L17.7815937,2.44481818 Z" id="Fill-1"></path>
                </g>
                <path d="M17.3895313,8.34133333 C17.1657813,8.29012121 16.9414063,8.42436364 16.8889063,8.6410303 C16.6942188,9.43769697 16.2745313,10.1658788 15.6748438,10.7470909 C14.8126562,11.5837576 13.6664062,12.0440606 12.4476562,12.0440606 C11.2282812,12.0440606 10.0820312,11.5837576 9.21984375,10.7470909 C9.06796875,10.6004242 8.92578125,10.4413333 8.79640625,10.2749697 C8.65859375,10.0967879 8.39796875,10.0607273 8.21390625,10.1949697 C8.03046875,10.3292121 7.99328125,10.5822424 8.13171875,10.7601212 C8.28421875,10.9567879 8.45234375,11.1443636 8.63171875,11.317697 C9.65078125,12.3067879 11.0057812,12.8507273 12.4476562,12.8507273 C13.8889063,12.8507273 15.2442188,12.3067879 16.2632813,11.318 C16.9720313,10.6307273 17.4685938,9.76921212 17.6982813,8.82678788 C17.7514063,8.61012121 17.6129688,8.39254545 17.3895313,8.34133333" id="Fill-4"></path>
                <path d="M8.0975625,8.96142424 C7.5788125,7.37687879 8.0088125,5.66293939 9.2200625,4.48809091 C10.0819375,3.65233333 11.2281875,3.1920303 12.4475625,3.1920303 C13.6663125,3.1920303 14.8125625,3.65233333 15.67475,4.48839394 C16.256625,5.05263636 16.6706875,5.75718182 16.871625,6.52657576 C16.9281875,6.74233333 17.1538125,6.87324242 17.3769375,6.81869697 C17.59975,6.76384848 17.73475,6.54415152 17.6781875,6.32839394 C17.440375,5.41839394 16.9513125,4.58445455 16.2631875,3.91748485 C15.244125,2.92930303 13.8888125,2.38506061 12.4475625,2.38506061 C11.006,2.38506061 9.651,2.92930303 8.631625,3.91748485 C7.19975,5.30627273 6.691,7.33263636 7.3044375,9.20566667 C7.361,9.37748485 7.5244375,9.48718182 7.7006875,9.48718182 C7.7425625,9.48718182 7.7850625,9.48112121 7.82725,9.46809091 C8.046,9.40051515 8.16725,9.17384848 8.0975625,8.96142424" id="Fill-6"></path>
                <path d="M13.2748437,4.15112121 C13.0507812,4.10051515 12.8276562,4.23627273 12.7757812,4.45354545 C12.7242187,4.67081818 12.8642187,4.88748485 13.0876562,4.93748485 C13.6045312,5.05293939 14.0764062,5.30687879 14.4535937,5.67233333 C14.5348437,5.75112121 14.6414062,5.79051515 14.7479687,5.79051515 C14.8542187,5.79051515 14.9607812,5.75112121 15.0420312,5.67233333 C15.2045312,5.51475758 15.2045312,5.25930303 15.0420312,5.10172727 C14.5545312,4.62930303 13.9435937,4.30051515 13.2748437,4.15112121" id="Fill-8"></path>
                <path d="M15.270375,7.34418182 C15.2913125,7.55236364 15.47225,7.70812121 15.684125,7.70812121 C15.6975625,7.70812121 15.711625,7.70751515 15.7250625,7.706 C15.954125,7.68418182 16.1213125,7.48690909 16.0985,7.26509091 C16.071,6.99387879 16.011,6.72509091 15.920375,6.46690909 C15.8463125,6.256 15.610375,6.14327273 15.3925625,6.21509091 C15.1744375,6.28690909 15.0585,6.516 15.1325625,6.72690909 C15.2025625,6.92690909 15.249125,7.13448485 15.270375,7.34418182" id="Fill-10"></path>
            </g>
        </g>
    </g>
</svg>